<svg width="1600" height="1100" viewBox="0 0 1600 1100" fill="none" xmlns="http://www.w3.org/2000/svg">
  <rect width="1600" height="1100" fill="#eef8f8"/>
  <path d="M0 730h1600v370H0z" fill="#dbe8e6"/>
  <path d="M170 100h1260c55 0 100 45 100 100v720c0 55-45 100-100 100H170c-55 0-100-45-100-100V200c0-55 45-100 100-100Z" fill="#f9fbfb"/>
  <path d="M70 718h1460v202c0 55-45 100-100 100H170c-55 0-100-45-100-100V718Z" fill="#d1dfdd"/>
  <g filter="url(#shadow)">
    <rect x="220" y="180" width="340" height="585" rx="26" fill="url(#machine)"/>
    <rect x="620" y="180" width="340" height="585" rx="26" fill="url(#machine)"/>
    <rect x="1020" y="180" width="340" height="585" rx="26" fill="url(#machine)"/>
  </g>
  <g>
    <circle cx="390" cy="430" r="117" fill="#224956"/>
    <circle cx="790" cy="430" r="117" fill="#224956"/>
    <circle cx="1190" cy="430" r="117" fill="#224956"/>
    <circle cx="390" cy="430" r="88" fill="#bce6eb"/>
    <circle cx="790" cy="430" r="88" fill="#bce6eb"/>
    <circle cx="1190" cy="430" r="88" fill="#bce6eb"/>
    <path d="M329 431c38-37 88-39 123-7 17 16 28 39 31 68-23 19-52 30-93 30-59 0-96-32-109-73 17 0 34-6 48-18Z" fill="#f9ffff" opacity=".86"/>
    <path d="M729 431c38-37 88-39 123-7 17 16 28 39 31 68-23 19-52 30-93 30-59 0-96-32-109-73 17 0 34-6 48-18Z" fill="#f9ffff" opacity=".86"/>
    <path d="M1129 431c38-37 88-39 123-7 17 16 28 39 31 68-23 19-52 30-93 30-59 0-96-32-109-73 17 0 34-6 48-18Z" fill="#f9ffff" opacity=".86"/>
  </g>
  <g>
    <rect x="280" y="232" width="128" height="25" rx="8" fill="#25849a"/>
    <rect x="680" y="232" width="128" height="25" rx="8" fill="#25849a"/>
    <rect x="1080" y="232" width="128" height="25" rx="8" fill="#25849a"/>
    <circle cx="455" cy="244" r="16" fill="#f5c355"/>
    <circle cx="498" cy="244" r="16" fill="#54a88c"/>
    <circle cx="855" cy="244" r="16" fill="#f5c355"/>
    <circle cx="898" cy="244" r="16" fill="#54a88c"/>
    <circle cx="1255" cy="244" r="16" fill="#f5c355"/>
    <circle cx="1298" cy="244" r="16" fill="#54a88c"/>
  </g>
  <g filter="url(#soft)">
    <rect x="730" y="820" width="560" height="68" rx="20" fill="#fff"/>
    <rect x="760" y="768" width="520" height="68" rx="20" fill="#f3ffff"/>
    <rect x="790" y="716" width="480" height="68" rx="20" fill="#fff"/>
    <rect x="815" y="664" width="430" height="68" rx="20" fill="#ecfbf8"/>
    <rect x="845" y="612" width="380" height="68" rx="20" fill="#fff"/>
  </g>
  <g filter="url(#shadow)">
    <rect x="175" y="730" width="300" height="205" rx="28" fill="#1b6574"/>
    <path d="M221 676h208c19 0 35 16 35 35v71H186v-71c0-19 16-35 35-35Z" fill="#fff"/>
    <path d="M224 785h212M224 832h212M224 879h212" stroke="#69a8b5" stroke-width="14" stroke-linecap="round"/>
  </g>
  <g>
    <rect x="1075" y="586" width="268" height="104" rx="22" fill="#fac95d"/>
    <text x="1209" y="653" text-anchor="middle" font-family="Arial, sans-serif" font-size="48" font-weight="800" fill="#224956">AL</text>
  </g>
  <path d="M1364 150c45 35 74 90 74 152" stroke="#91c7c9" stroke-width="10" stroke-linecap="round"/>
  <path d="M126 568c40-22 85-28 134-18" stroke="#f6c350" stroke-width="12" stroke-linecap="round"/>
  <defs>
    <linearGradient id="machine" x1="390" y1="180" x2="390" y2="765" gradientUnits="userSpaceOnUse">
      <stop stop-color="#fff"/>
      <stop offset="1" stop-color="#dfe9eb"/>
    </linearGradient>
    <filter id="shadow" x="120" y="130" width="1290" height="855" filterUnits="userSpaceOnUse" color-interpolation-filters="sRGB">
      <feDropShadow dx="0" dy="18" stdDeviation="22" flood-color="#1f4952" flood-opacity=".16"/>
    </filter>
    <filter id="soft" x="680" y="570" width="660" height="370" filterUnits="userSpaceOnUse" color-interpolation-filters="sRGB">
      <feDropShadow dx="0" dy="16" stdDeviation="20" flood-color="#315c62" flood-opacity=".14"/>
    </filter>
  </defs>
</svg>
